# xmcd
#
# Track frame offsets:
#	150
#	20569
#	43545
#	51007
#	68267
#	83855
#	102655
#	118931
#
# Disc length: 1800 seconds
#
# Revision: 1
# Processed by: cddbd v1.5.1PL0 Copyright (c) Steve Scherf et al.
# Submitted via: audiograbber 1.82.01
#
DISCID=64070608
DTITLE=Two Purple - Just A Second
DYEAR=2003
DGENRE=Pop-Folk
TTITLE0=Angel (Sarah McLachlan)
TTITLE1=You've Got A Friend (Carol King)
TTITLE2=Sad Song (Bandits)
TTITLE3=I Would Stay (Krezip)
TTITLE4=Leave (Peter Naekel)
TTITLE5=Over The Mountains (Peter Naekel)
TTITLE6=Dreams (Cranberries)
TTITLE7=I would Like To
EXTD=
EXTT0=
EXTT1=
EXTT2=
EXTT3=
EXTT4=
EXTT5=
EXTT6=
EXTT7=
PLAYORDER=
